<svg version="1.1" xmlns="http://www.w3.org/2000/svg" xmlns:xlink="http://www.w3.org/1999/xlink" width="23.03814" height="23.4648" viewBox="0,0,23.03814,23.4648"><g transform="translate(-228.48093,-168.2676)"><g data-paper-data="{&quot;isPaintingLayer&quot;:true}" fill-rule="nonzero" stroke="none" stroke-width="1" stroke-linecap="butt" stroke-linejoin="miter" stroke-miterlimit="10" stroke-dasharray="" stroke-dashoffset="0" style="mix-blend-mode: normal"><g><path d="M250.35894,181.0039c0,5.37924 -4.63792,9.74129 -10.36005,9.74129c-5.72214,0 -10.35968,-4.3602 -10.35968,-9.74129c0,-5.37924 4.63718,-7.87798 10.35968,-7.87798c5.72177,-0.00037 10.36005,2.49911 10.36005,7.87798z" fill="#ec1c2c"/><g fill="#231f20"><path d="M251.51907,180.89985c0,5.98245 -5.15707,10.83255 -11.51944,10.83255c-6.36126,0 -11.5187,-4.8501 -11.5187,-10.83255c0,-5.27223 4.00694,-7.64581 9.3125,-8.13608c0,0 1.67669,-0.21477 3.383,-0.06999c5.80767,0.27031 10.34265,2.59835 10.34265,8.20606zM249.76166,181.05871c0,-4.66643 -3.70552,-7.02964 -8.49785,-7.37623c0,0 -3.03899,0.04258 -3.1312,0.05332c-4.49721,0.49656 -7.89242,2.85496 -7.89242,7.32217c0,5.06783 4.36872,9.17771 9.75981,9.17771c5.39072,0 9.75944,-4.10914 9.76166,-9.17697z"/><path d="M243.31486,176.06531c-1.32121,0.06702 -2.58687,0.10035 -3.91066,0.24884c-0.88389,0.09924 -1.73556,0.10701 -2.39024,-0.56062c-0.14219,-0.14627 0.04369,-0.39844 0.22144,-0.28624c0.43769,0.27439 0.87871,0.38547 1.32232,0.40695c0.02888,0.0237 1.58263,-0.18144 2.29211,-0.40658c0.85612,-0.23328 1.71297,-0.42584 2.56576,-0.14404c0.40769,0.13479 0.32882,0.71911 -0.10072,0.7417z"/></g><path d="M233.12996,180.95169c0,1.27047 0.68504,2.30026 -0.0311,2.30026c-0.71615,0 -1.29603,-1.02978 -1.29603,-2.30026c0,-1.2701 0.57988,-2.29989 1.29603,-2.29989c0.71615,0 0.0311,1.03015 0.0311,2.29989z" fill="#ffffff"/></g><g><path d="M237.41091,170.00028c0.37807,-0.22588 0.75503,-0.4525 1.13273,-0.67875c0.27179,0.41769 0.54507,0.82538 0.76428,1.28936c0.80057,1.69002 0.62431,3.4752 0.60136,5.2626c-0.13886,0.03296 -0.36178,0.05665 -0.49915,0.08109c0.09554,-2.27656 -0.4462,-4.36353 -1.99921,-5.95431z" fill="#99661d"/><path d="M240.81057,175.09255c0,0 -0.08517,0.69467 -0.09294,0.82575c0,0 -1.39637,0.41621 -1.94404,0.2081l-0.01703,-0.5958c0.01111,-1.19049 -0.35918,-2.46911 -0.5784,-2.8694c-0.10479,-0.19107 -0.52693,-1.28344 -1.81444,-2.42801c-0.22069,-0.19514 -0.14627,-0.56099 0.08961,-0.70282c0.66912,-0.4014 1.33639,-0.80279 2.00477,-1.20419c0.21477,-0.12849 0.46842,-0.03259 0.61395,0.16108c2.04698,2.72462 1.8011,6.32349 1.73853,6.60528zM239.87151,175.35694c0.04147,-1.64484 0.18144,-3.17341 -0.56359,-4.74604c-0.21921,-0.46398 -0.49249,-0.87167 -0.76428,-1.28936c-0.3777,0.22625 -0.75466,0.45287 -1.13273,0.67875c1.4671,1.50265 2.06623,3.32116 2.04772,5.43701v0.42658l0.41065,-0.05221z" fill="#231f20"/></g></g></g></svg>