<svg version="1.1" xmlns="http://www.w3.org/2000/svg" xmlns:xlink="http://www.w3.org/1999/xlink" width="114.50142" height="126.5" viewBox="0,0,114.50142,126.5"><g transform="translate(-181.74859,-181.64103)"><g data-paper-data="{&quot;isPaintingLayer&quot;:true}" fill-rule="nonzero" stroke-linejoin="miter" stroke-miterlimit="10" stroke-dasharray="" stroke-dashoffset="0" style="mix-blend-mode: normal"><path d="M256.8992,200.37802c0,9.79587 -8.09383,17.73699 -18.07808,17.73699c-9.98425,0 -18.07808,-7.94112 -18.07808,-17.73699c0,-9.79587 8.09383,-17.73699 18.07808,-17.73699c9.98425,0 18.07808,7.94112 18.07808,17.73699z" fill="#ffc000" stroke="#000000" stroke-width="2" stroke-linecap="butt"/><path d="M239.84734,198.33305z" fill="none" stroke="#000000" stroke-width="2" stroke-linecap="butt"/><path d="M263.72112,258.70542l-55.93973,1.36438l27.96986,-44.34247z" fill="#0028ff" stroke="#000000" stroke-width="2" stroke-linecap="round"/><path d="M215.96769,302.36568l0.68219,-43.66027" fill="none" stroke="#000000" stroke-width="2" stroke-linecap="round"/><path d="M239.8444,258.70541l1.36438,48.43562" fill="none" stroke="#000000" stroke-width="2" stroke-linecap="round"/><path d="M231.317,197.30815c0,-0.94191 0.76357,-1.70548 1.70548,-1.70548c0.94191,0 1.70548,0.76357 1.70548,1.70548c0,0.94191 -0.76357,1.70548 -1.70548,1.70548c-0.94191,0 -1.70548,-0.76357 -1.70548,-1.70548z" fill="#000000" stroke="none" stroke-width="0.5" stroke-linecap="butt"/><path d="M244.96084,197.99035c0,-0.94191 0.76357,-1.70548 1.70548,-1.70548c0.94191,0 1.70548,0.76357 1.70548,1.70548c0,0.94191 -0.76357,1.70548 -1.70548,1.70548c-0.94191,0 -1.70548,-0.76357 -1.70548,-1.70548z" fill="#000000" stroke="none" stroke-width="0.5" stroke-linecap="butt"/><path d="M185.31067,255.56066c-1.06066,1.06066 -2.12132,0 -2.12132,0l-1.43934,-2.06066c0,-5.04701 -0.21954,-11.42975 4.80384,-14.32867c1.5463,-0.89234 3.30513,-0.60171 4.95589,-1.15196c1.17788,0.01752 2.25852,-0.6716 3.39564,-0.97924c1.81458,-0.49092 4.45629,-0.04013 6.34463,-0.04013c6.47584,0 12.91447,1 19.5,1c0,0 1.5,0 1.5,1.5c0,1.5 -1.5,1.5 -1.5,1.5c-5.05892,0 -10.25238,0.17324 -15.24027,-0.51937c-2.75998,-0.38325 -7.13383,-1.36683 -9.9151,-0.52076c-1.19465,0.36342 -2.35576,1.0046 -3.60436,1.02076c-1.30474,0.43491 -2.86883,0.18805 -4.04411,0.84804c-3.73771,2.09893 -3.19616,8.04494 -3.19616,11.67133l0.56066,-0.06066c0,0 1.06066,1.06066 0,2.12132z" fill="#000000" stroke="none" stroke-width="0.5" stroke-linecap="butt"/><path d="M294.75001,245c-1.5,0 -1.5,-1.5 -1.5,-1.5v-0.5c0.03537,-1.01843 -0.48275,-1.99004 -0.88582,-2.92597c-1.87006,-4.34233 -5.99701,-3.07403 -10.11418,-3.07403c-1.98905,-0.03058 -3.8218,0.71153 -5.75973,0.98063c-2.30934,0.32067 -5.65587,-0.32905 -7.8056,0.45501c-0.56455,0.2059 -0.926,0.82213 -1.5,1c-1.10047,0.34102 -2.15532,-0.1084 -3.2514,0.05312c-3.74386,0.55171 -7.35787,0.51124 -11.18327,0.51124c0,0 -1.5,0 -1.5,-1.5c0,-1.5 1.5,-1.5 1.5,-1.5c3.70877,0 7.19308,0.0142 10.81673,-0.48876c0.90767,-0.12598 1.8877,0.36711 2.7486,0.05312c0.56455,-0.2059 0.926,-0.82213 1.5,-1c2.47587,-0.76724 5.63694,-0.16791 8.1944,-0.54499c2.12009,-0.3126 4.05323,-0.99503 6.24027,-1.01937c2.43245,0 6.16432,-0.70564 8.43468,0.06436c3.5001,1.18707 5.49202,5.5658 5.56532,8.93564v0.5c0,0 0,1.5 -1.5,1.5z" fill="#000000" stroke="none" stroke-width="0.5" stroke-linecap="butt"/><path d="M230.25,207.5h19.5" fill="none" stroke="#000000" stroke-width="0.5" stroke-linecap="round"/></g></g></svg>