<svg version="1.1" xmlns="http://www.w3.org/2000/svg" xmlns:xlink="http://www.w3.org/1999/xlink" width="733.0907" height="510.92779" viewBox="0,0,733.0907,510.92779"><g transform="translate(190.5907,56.3588)"><g data-paper-data="{&quot;isPaintingLayer&quot;:true}" fill-rule="nonzero" stroke="none" stroke-linecap="butt" stroke-linejoin="miter" stroke-miterlimit="10" stroke-dasharray="" stroke-dashoffset="0" style="mix-blend-mode: normal"><path d="M-59.5,411.5v-442l274.33822,0c-5.93741,2.78406 -10.31083,14.77571 -10.33822,21c-0.12448,28.29347 0.49535,56.59183 0,84.88124c-0.08366,4.77805 -1.12063,9.49186 -1.73548,14.23093c-0.08402,0.64762 -1.22224,-0.60734 -1.87425,-0.57048c-1.98621,0.11229 -3.99494,0.23064 -5.92581,0.70958c-2.93745,0.72861 -5.82494,1.69993 -8.60554,2.89481c-8.77358,3.77017 -11.9774,12.66283 -13.05165,21.55041c-0.28883,2.38958 1.05171,7.10931 1.19273,9.08022c0.60796,8.49688 0.7093,16.53372 5.19874,24.09081c2.17466,3.66062 5.79047,5.86251 7.98869,9.15745c1.58665,2.37825 0.6343,5.68409 1.06383,8.51058c0.71393,4.69801 1.59691,9.42381 2.99052,13.97626c0.99586,3.25315 2.64082,6.1411 4.49386,8.98771c0.40041,0.61511 2.25805,1.71706 2.26437,2.32727c0.28696,27.72293 -0.12437,55.4491 0,83.17323c0.03149,7.01945 2.99282,13.72763 8.01086,18.15731c0.96959,0.8559 1.40661,2.30626 2.53602,2.93644c1.59455,0.88971 3.57939,0.78566 5.28819,1.42924c2.93978,1.1072 5.84763,2.54 9.16494,2.47701c1.18368,-0.02247 2.25262,-0.79056 3.42867,-0.92667c1.81387,-0.20992 3.71421,0.37242 5.47694,-0.10399c1.24852,-0.33744 2.02426,-1.6385 3.17249,-2.23369c15.51222,-8.04085 12.89219,-27.08311 15.6703,-41.97266c5.51773,-29.57279 9.29148,-59.65287 18.11726,-88.41223c1.43148,-4.66458 10.04633,-13.36951 11.71029,-8.78271c6.77012,18.66228 4.26324,39.47569 6.57697,59.19274c0.75011,6.39228 6.68476,17.65879 12.81178,19.80003c8.04903,2.81293 22.37383,3.17361 28.72945,-3.19216c2.19893,-2.20244 5.23587,-6.37999 6.42746,-9.3608c0.38032,-0.95139 0.98764,-5.44217 1.36392,-5.61576c1.21754,-0.56168 2.67193,-0.32909 3.96232,-0.69344c2.71719,-0.76721 2.66541,1.86428 4.72302,2.42039c2.42692,0.65592 4.955,0.86492 7.40791,1.41575c1.82643,0.41015 3.58259,1.11381 5.42123,1.4652c2.32856,0.44502 3.11019,-1.65699 2.98937,-0.46307c-2.58783,25.57223 -5.9298,51.06257 -8.82509,76.60182c-0.84082,7.41683 -1.01237,17.63756 2.96072,24.36126c5.11675,8.65911 11.10818,12.5 21.875,12.5c4.99056,0 10.1201,-1.43024 14.45313,-3.90625c11.2091,-6.4052 9.43178,-18.25843 10.54688,-28.55323c1.89833,-17.52571 3.79626,-35.06382 6.49293,-52.48456c0.08994,-0.58102 1.12514,-0.3504 1.70273,-0.4602c1.9042,-0.36199 9.06035,-1.28266 11.25746,-3.50202c2.96334,-2.99334 7.05888,-5.48277 8.336,-9.49655c1.87492,-5.89261 2.08384,-10.71291 2.21088,-16.69868c0.04667,-2.1991 4.22247,-1.23551 6.31996,-1.8979c2.55992,-0.80843 5.16888,-1.46041 7.71331,-2.31633c2.18706,-0.7357 2.95249,-3.54774 4.37743,-5.36268c1.07917,-1.37455 2.69701,-2.48846 3.18043,-4.16784c4.91069,-17.0593 2.08364,-25.60266 1.38855,-47.93139c-0.37864,-12.16336 2.43916,-62.66321 -3.73009,-91.56492c-4.05754,-19.00875 6.69592,-47.97977 -12.42283,-62.167c-0.72146,-0.53537 -1.76765,-0.34668 -2.6214,-0.62641c-5.27853,-1.72951 -5.38208,-2.5681 -10.16458,-2.84238c-7.00816,-0.40192 -14.58913,1.88958 -21.04076,-0.8767c-0.96343,-0.41309 0.39627,-11.18496 -0.48277,-13.94764c-2.29356,-7.20832 -6.6811,-12.93304 -12.74151,-16.19733h150.22427v442z" fill="#00e0ff" stroke-width="NaN"/><path d="M283.09111,31.19746c-4.10608,-2.95618 -9.14525,-4.69746 -14.59111,-4.69746c-3.75485,0 -7.31635,0.82779 -10.51198,2.31083c-10.24819,1.74875 -1.04476,-17.35547 -1.66444,-26.07499c-0.7778,-10.94447 -1.62154,-21.82021 -9.25911,-29.72698c-0.7136,-0.73875 -1.96259,-2.25307 -3.31486,-3.50886h77.11287c-0.43343,0.06569 -0.85426,0.17368 -1.252,0.36201c-1.44602,0.68471 -2.24863,2.2969 -3.54021,3.24117c-14.51129,10.60916 -5.98228,25.24056 -12.30994,41.21835c-1.00496,2.5376 -6.10192,0.13826 -7.88588,2.20389c-2.47396,2.86458 -6.20356,5.04746 -7.35119,8.65429c-0.86835,2.72909 -0.35929,6.37282 -2.56456,8.20003c-0.06223,0.05156 -0.11812,0.07011 -0.16936,0.06257c-0.071,-0.06799 -0.14239,-0.13557 -0.21419,-0.20273c-0.20628,-0.36657 -0.36225,-1.12068 -0.68727,-1.36803c-0.50905,-0.38739 -1.18892,-0.47485 -1.79679,-0.67409z" fill="#00e0ff" stroke-width="NaN"/><path d="M361.34001,-24.1437c-2.61736,3.35495 -3.39211,4.62135 -4.81925,8.5729c-0.29601,0.81961 0.12836,2.58735 -0.7394,2.50755c-0.66212,-0.06089 -0.74457,-3.6311 -1.09567,-4.29523c-1.34101,-2.53658 -3.97806,-7.4696 -6.36694,-9.40207c-2.062,-1.66805 -4.31152,-2.89594 -6.66984,-3.73945h26.07999c-2.48407,1.72145 -4.57871,4.03601 -6.38888,6.3563z" fill="#00e0ff" stroke-width="NaN"/><path d="M106.63962,156.08057c-1.6715,0.53184 -3.39802,0.93316 -5.15127,1.1997c-0.52481,0.90487 -1.09365,1.76977 -1.89113,2.42345c-5.12177,4.1982 -5.85706,2.09475 -10.64422,-0.8971c-2.30752,-1.44214 -4.57157,-2.87726 -6.73171,-4.39127c-3.41569,-1.7491 -6.45319,-4.22155 -8.81504,-7.46223c-0.14587,-0.20014 -0.28618,-0.4212 -0.42165,-0.66054c-1.70189,-2.00499 -3.19892,-4.23053 -4.42823,-6.76596c-1.101,-2.30989 -2.36361,-4.54948 -3.30289,-6.92973c-0.75463,-1.91232 -2.81379,-3.88192 -2.15637,-5.80177c-2.24945,-2.92888 -4.26564,-6.35448 -4.73255,-9.5995c-0.47293,-3.28684 -0.15346,-7.86927 0.65476,-12.04666c0.37216,-4.62581 3.08747,-10.3996 4.55616,-14.76016c0.45956,-1.36444 0.73276,-2.81366 1.27698,-4.14085c0.30514,-4.43367 0.9076,-9.13708 3.55379,-12.20109c5.34462,-6.18851 9.12285,-8.14009 17.1875,-10.15625c2.8532,-0.7133 7.13965,-0.5481 9.98262,0.02761c0.23638,0.04787 0.52431,0.31825 0.70575,0.15936c0.56084,-0.4911 0.71659,-2.55884 1.12412,-3.03072c4.72244,-5.46808 8.10125,-7.48571 14.26541,-9.33735c1.05409,-1.74009 2.03678,-3.76394 3.87163,-4.51922c2.05145,-0.84444 8.22368,0.72023 10.35415,2.23674c0.60946,0.43383 1.20277,0.89363 1.78206,1.37534c0.50779,0.11529 0.99312,0.24557 1.44962,0.39082c1.10091,0.35029 2.01572,1.94916 3.09992,1.55013c4.05551,-1.49259 6.08905,-1.18491 10.3005,-1.24333c7.83959,-0.10876 16.15337,-3.37257 23.42358,2.90625c9.25778,7.99536 11.95339,18.18495 10.83719,29.89901c-0.15158,1.59075 1.47874,2.85069 1.96325,4.37342c0.27128,0.85259 0.74309,6.7451 0.74644,6.82131c0.02921,0.66596 0.04548,1.38779 0.04739,2.15604c-3.79055,4.43735 -5.5088,10.49006 -6.24012,16.54043c-0.28883,2.38958 1.05171,7.10931 1.19273,9.08022c0.01495,0.20889 0.02959,0.4175 0.04399,0.62584c-1.44216,2.91162 -3.25159,5.26052 -5.49669,6.59622c-3.15818,1.87892 -6.17033,4.04166 -9.50629,5.58302c-1.25445,0.57961 -2.83239,-0.13713 -4.13235,0.3316c-0.81991,0.29563 0.63136,1.73448 0.42179,2.58049c-0.44882,1.81185 -2.61538,8.453 -4.36732,10.48157c-2.10167,2.43351 -4.06417,5.03102 -6.51001,7.11833c-0.58162,0.49636 -1.50137,0.32246 -2.21443,0.59849c-11.82822,4.57883 -21.93836,7.91941 -33.3204,-1.91054z" fill="#ffffff" stroke-width="0.5"/><path d="M281.07594,156.06805c0.14339,0.39525 0.28261,0.79147 0.41781,1.18862c-1.22717,-0.6747 -2.42068,-1.38313 -3.5758,-2.12668c1.4431,-0.63022 2.63885,-0.493 3.158,0.93806z" fill="#ffffff" stroke-width="0.5"/><path d="M185.862,154.38863c-0.2315,-0.24029 -0.43732,-0.49932 -0.62422,-0.77217c0.34599,0.35145 0.68436,0.7071 1.00978,1.0717c-0.1401,-0.0814 -0.26978,-0.17934 -0.38557,-0.29952z" fill="#ffffff" stroke-width="0.5"/><path d="" fill="#ffffff" stroke-width="0.5"/><path d="M-165.17498,53.93179c3.45129,0.10491 6.92643,1.14876 10.18861,2.87981c3.65792,1.69791 6.83636,4.25439 9.27653,7.41064c6.91733,7.83165 10.45983,18.76456 5.93627,27.81167c-4.69473,9.38946 -13.5786,15.31204 -24.05145,16.0343c-11.78404,0.81269 -28.18171,-15.85973 -26.66796,-27.96977c-0.00467,-0.19891 -0.00702,-0.3984 -0.00702,-0.59844c0,-1.17289 0.08077,-2.32692 0.23705,-3.45683c1.43959,-10.40807 9.28642,-18.76921 19.43022,-20.97317c1.78193,-0.76641 3.6543,-1.19912 5.65775,-1.13822z" fill="#00e0ff" stroke-width="0.5"/><path d="M415.21411,299.26995c-6.74047,26.28332 -7.09387,58.6061 -7.69873,83.68734c-0.40124,16.6382 4.57497,33.74579 0.67151,49.92459c-1.26912,5.26016 -2.06261,7.82302 -5.24,11.90091c-1.46201,1.87636 -2.30209,4.71609 -4.54834,5.49874c-2.46942,0.86041 -5.03514,1.41784 -7.5281,2.20749c-2.26465,0.71733 -4.50708,2.46016 -6.83866,2.00532c-4.50171,-0.87817 -8.99317,-1.82224 -13.44532,-2.92446c-2.64964,-0.65597 -6.07492,-5.89068 -8.01529,-8.04312c-5.34795,-5.93243 -4.79633,-28.66178 -5.40662,-31.83123c-0.14688,-0.76278 -1.54588,0.19029 -2.29927,0.37951c-1.96144,0.49263 -5.52358,1.88333 -7.8706,1.2991c-8.77807,-2.18508 -11.76954,-2.87005 -16.87707,-9.44994c-1.20072,-1.54686 -2.97244,-3.23209 -3.63516,-5.17929c-0.91664,-2.69323 -1.90994,-6.90332 -1.97746,-9.74503c-0.79182,-33.32393 -1.40709,-66.65194 -1.9996,-99.98001c-0.10152,-5.71049 3.67687,-15.31819 2.69249,-18.95517c-0.56592,-2.09091 -4.31247,-0.42445 -6.45868,-0.71763c-1.44631,-0.19757 -2.88818,-0.4676 -4.29337,-0.86296c-5.23368,-1.47254 -13.24623,-9.48 -15.64788,-4.60232c-7.03659,14.29112 -3.59625,31.65553 -5.46178,47.47544c-1.19131,10.10249 -3.67948,20.40208 -10.03921,28.50321c-1.501,1.912 -10.33566,6.16196 -13.58956,6.28294c-2.14996,0.07994 -6.44484,-0.92207 -6.73228,-0.39877c-1.05804,1.92621 0.51119,4.38291 0.42871,6.57903c-0.10934,2.91141 -0.44612,6.18317 -1.64734,8.86655c-7.04154,15.72989 -27.82178,20.11357 -40.61711,8.56835c-5.8459,-5.27474 -8.33629,-15.52403 -9.99416,-22.61539c-2.99526,-12.81186 -5.74738,-25.68165 -8.9099,-38.45325c-0.63403,-2.56048 -1.97971,-4.84226 -2.48407,-7.65439c-2.37802,-13.25884 -0.04369,-15.34816 -7.03558,-33.43041c-7.49637,-19.38693 -17.33861,-37.78324 -25.94838,-56.70202c-2.29017,-5.03234 -4.3199,-12.71168 -5.65555,-16.5109c-1.18562,-3.37247 -2.83807,-6.26882 -3.77008,-9.7885c-0.77511,-2.92715 -0.8453,-6.05596 -0.84167,-9.07141c0.0283,-23.47599 -1.0003,-28.50116 6.59177,-47.81037c1.93028,-4.90937 5.87036,-8.6773 7.40823,-13.72404c2.92176,-9.58817 -1.32616,-20.12299 0.18529,-29.75848c1.74546,-11.12733 7.85086,-16.71323 12.16313,-28.33794c2.168,-5.84434 2.83377,-12.14105 4.33142,-18.19196c1.48871,-6.01479 5.42352,-14.19143 7.08629,-18.43937c0.84875,-2.16834 -0.92336,-4.56625 -1.28065,-6.86721c-1.20591,-7.76623 0.15278,-17.00275 6.20524,-22.75254c2.7234,-2.58721 7.19535,-2.62381 10.091,-5.01667c2.35782,-1.94842 1.90931,-5.88262 3.56137,-8.45678c4.16411,-6.48832 9.13278,-12.85239 16.38409,-16.10298c10.23091,-4.58627 21.75752,-8.20854 33.17572,-6.08845c8.40591,1.56078 20.16822,5.43494 29.13696,5.51452c21.76304,0.19309 45.7987,-0.15576 67.56259,-0.15576c9.47614,0 17.22186,4.30843 23.39754,11.15576c1.22176,1.35463 9.55436,11.68871 9.71068,7.46947c0.36828,-9.94046 0.20649,-19.90065 7.29596,-27.63752c2.79385,-3.04898 6.00285,-3.42364 9.91926,-4.71613c1.26248,-0.41664 2.30892,-1.40358 3.60196,-1.71256c3.07447,-0.73467 6.0566,0.25648 9.02507,0.7609c1.94367,0.33027 4.00639,-0.07323 5.89369,0.49689c3.91626,1.18304 9.81716,7.77684 11.7864,11.48747c0.72974,1.37505 2.13235,6.17818 2.36371,7.37936c2.31399,12.01358 5.6446,23.93357 6.36808,36.14657c0.47673,8.04766 -0.44295,16.27629 1.28237,24.15127c0.75156,3.43039 5.78111,4.52192 7.11348,7.7711c0.6021,1.46832 2.50563,8.11107 2.79508,11.00565c3.12449,31.24492 -1.19236,62.8185 -0.15576,94.20215c0.03372,1.02076 2.0777,-0.32556 3.06339,-0.05817c1.1426,0.30996 1.99362,1.3133 3.10154,1.73057c1.7088,0.64358 3.69364,0.53953 5.28819,1.42924c4.14365,2.31204 8.35398,9.72643 9.80044,14.27244c1.85115,5.81791 -0.17595,11.31133 -0.25356,17.00185c-0.27509,20.16897 3.09423,31.37654 -9.69308,46.73236c-5.11413,6.14138 -12.04512,8.80407 -19.15346,11.93239c-1.33251,0.58642 -4.5967,1.62896 -4.63742,1.91983c-1.41693,10.12229 -0.27612,20.44046 -0.51964,30.65855c-0.0844,3.54164 -1.32407,10.1152 -3.33639,12.44525c-2.38257,2.75877 -4.77791,5.50684 -7.2069,8.22484c-1.92209,2.15079 -5.56208,1.53193 -8.35375,2.25777c-3.36508,0.87492 -7.07719,1.48499 -10.41786,0.52107z" fill="#00e0ff" stroke-width="0.5"/><path d="M228.63963,191.08058c-1.6715,0.53184 -3.39802,0.93316 -5.15127,1.1997c-0.52481,0.90487 -1.09366,1.76978 -1.89114,2.42346c-5.12177,4.1982 -5.85706,2.09474 -10.64422,-0.89711c-2.30752,-1.44214 -4.57157,-2.87726 -6.73171,-4.39128c-3.41568,-1.7491 -6.45319,-4.22155 -8.81504,-7.46222c-0.14587,-0.20014 -0.28618,-0.4212 -0.42165,-0.66054c-1.70189,-2.005 -3.19891,-4.23054 -4.42822,-6.76596c-1.101,-2.3099 -2.36361,-4.54948 -3.30289,-6.92972c-0.75463,-1.91232 -2.81379,-3.88192 -2.15637,-5.80177c-2.24945,-2.92889 -4.26564,-6.35449 -4.73255,-9.5995c-0.47293,-3.28684 -0.15346,-7.86926 0.65475,-12.04665c0.37216,-4.62581 3.08748,-10.3996 4.55615,-14.76015c0.45956,-1.36444 0.73275,-2.81367 1.27699,-4.14086c0.30514,-4.43366 0.9076,-9.13708 3.55379,-12.20109c5.34463,-6.18851 9.12286,-8.14009 17.1875,-10.15625c2.8532,-0.7133 7.13965,-0.5481 9.98262,0.0276c0.23638,0.04787 0.52431,0.31824 0.70576,0.15937c0.56083,-0.4911 0.71659,-2.55884 1.12412,-3.03072c4.72244,-5.46809 8.10125,-7.48571 14.2654,-9.33735c1.05409,-1.74009 2.03679,-3.76394 3.87164,-4.51922c2.05145,-0.84444 8.22368,0.72024 10.35415,2.23674c0.60947,0.43383 1.20277,0.89363 1.78206,1.37534c0.50779,0.11529 0.99311,0.24558 1.44961,0.39083c1.10091,0.35029 2.01572,1.94916 3.09992,1.55013c4.05551,-1.49259 6.08905,-1.18491 10.30049,-1.24334c7.83959,-0.10877 16.15337,-3.37257 23.42359,2.90625c9.25778,7.99536 11.95339,18.18496 10.83718,29.89902c-0.15158,1.59075 1.47875,2.85068 1.96326,4.37342c0.27128,0.85259 0.74309,6.7451 0.74644,6.82131c0.02921,0.66596 0.04548,1.38779 0.04739,2.15605c-3.79055,4.43734 -5.5088,10.49007 -6.24012,16.54043c-0.28883,2.38958 1.0517,7.1093 1.19272,9.08022c0.01495,0.20889 0.02959,0.4175 0.04399,0.62584c-1.44216,2.91162 -3.25159,5.26052 -5.49669,6.59622c-3.15817,1.87892 -6.17033,4.04166 -9.50629,5.58302c-1.25445,0.57961 -2.83239,-0.13713 -4.13234,0.33159c-0.81991,0.29564 0.63136,1.73448 0.42179,2.58049c-0.44882,1.81185 -2.61538,8.45301 -4.36733,10.48157c-2.10167,2.43351 -4.06417,5.03102 -6.51001,7.11832c-0.58162,0.49636 -1.50136,0.32246 -2.21443,0.5985c-11.82822,4.57883 -21.93836,7.9194 -33.3204,-1.91054z" fill="#ffffff" stroke-width="0.5"/><path d="M391.63963,137.08058c-1.6715,0.53184 -3.39802,0.93316 -5.15127,1.1997c-0.52481,0.90487 -1.09366,1.76978 -1.89114,2.42346c-5.12177,4.1982 -5.85706,2.09474 -10.64422,-0.89711c-2.30752,-1.44214 -4.57157,-2.87726 -6.73171,-4.39128c-3.41568,-1.7491 -6.45319,-4.22155 -8.81504,-7.46222c-0.14587,-0.20014 -0.28618,-0.4212 -0.42165,-0.66054c-1.70189,-2.005 -3.19891,-4.23054 -4.42822,-6.76596c-1.101,-2.3099 -2.36361,-4.54948 -3.30289,-6.92972c-0.75463,-1.91232 -2.81379,-3.88192 -2.15637,-5.80177c-2.24945,-2.92889 -4.26564,-6.35449 -4.73255,-9.5995c-0.47292,-3.28684 -0.15346,-7.86926 0.65476,-12.04665c0.37216,-4.62581 3.08748,-10.3996 4.55615,-14.76015c0.45956,-1.36444 0.73275,-2.81367 1.27699,-4.14086c0.30514,-4.43366 0.9076,-9.13708 3.55379,-12.20109c5.34463,-6.18851 9.12286,-8.14009 17.1875,-10.15625c2.8532,-0.7133 7.13965,-0.5481 9.98262,0.0276c0.23638,0.04787 0.52431,0.31824 0.70576,0.15937c0.56083,-0.4911 0.71659,-2.55884 1.12412,-3.03072c4.72244,-5.46809 8.10125,-7.48571 14.2654,-9.33735c1.05409,-1.74009 2.03679,-3.76394 3.87164,-4.51922c2.05145,-0.84444 8.22368,0.72024 10.35415,2.23674c0.60947,0.43383 1.20277,0.89363 1.78206,1.37534c0.50779,0.11529 0.99311,0.24558 1.44961,0.39083c1.10091,0.35029 2.01572,1.94916 3.09992,1.55013c4.05551,-1.49259 6.08905,-1.18491 10.30049,-1.24334c7.83959,-0.10877 16.15337,-3.37257 23.42359,2.90625c9.25778,7.99536 11.95339,18.18496 10.83718,29.89902c-0.15158,1.59075 1.47875,2.85068 1.96326,4.37342c0.27128,0.85259 0.74309,6.7451 0.74644,6.82131c0.02921,0.66596 0.04548,1.38779 0.04739,2.15605c-3.79055,4.43734 -5.5088,10.49007 -6.24012,16.54043c-0.28883,2.38958 1.0517,7.1093 1.19272,9.08022c0.01495,0.20889 0.02959,0.4175 0.04399,0.62584c-1.44216,2.91162 -3.25159,5.26052 -5.49669,6.59622c-3.15817,1.87892 -6.17033,4.04166 -9.50629,5.58302c-1.25445,0.57961 -2.83239,-0.13713 -4.13234,0.33159c-0.81991,0.29564 0.63136,1.73448 0.42179,2.58049c-0.44882,1.81185 -2.61538,8.45301 -4.36733,10.48157c-2.10167,2.43351 -4.06417,5.03102 -6.51001,7.11832c-0.58162,0.49636 -1.50136,0.32246 -2.21443,0.5985c-11.82822,4.57883 -21.93836,7.9194 -33.3204,-1.91054z" fill="#ffffff" stroke-width="0.5"/></g></g></svg>