<svg version="1.1" xmlns="http://www.w3.org/2000/svg" xmlns:xlink="http://www.w3.org/1999/xlink" width="66.56904" height="165.09147" viewBox="0,0,66.56904,165.09147"><g transform="translate(-205.64959,-143.04956)"><g data-paper-data="{&quot;isPaintingLayer&quot;:true}" fill-rule="nonzero" stroke-linejoin="miter" stroke-miterlimit="10" stroke-dasharray="" stroke-dashoffset="0" style="mix-blend-mode: normal"><path d="M256.89919,200.37802c0,9.79587 -8.09383,17.73699 -18.07808,17.73699c-9.98425,0 -18.07808,-7.94112 -18.07808,-17.73699c0,-9.79587 8.09383,-17.73699 18.07808,-17.73699c9.98425,0 18.07808,7.94112 18.07808,17.73699z" fill="#ffc000" stroke="#000000" stroke-width="2" stroke-linecap="butt"/><path d="M239.84733,198.33305z" fill="none" stroke="#000000" stroke-width="2" stroke-linecap="butt"/><path d="M263.72111,258.70542l-55.93973,1.36438l27.96986,-44.34247z" fill="#0028ff" stroke="#000000" stroke-width="2" stroke-linecap="round"/><path d="M215.96768,302.36568l0.68219,-43.66027" fill="none" stroke="#000000" stroke-width="2" stroke-linecap="round"/><path d="M239.84439,258.70541l1.36438,48.43562" fill="none" stroke="#000000" stroke-width="2" stroke-linecap="round"/><path d="M231.31699,197.30815c0,-0.94191 0.76357,-1.70548 1.70548,-1.70548c0.94191,0 1.70548,0.76357 1.70548,1.70548c0,0.94191 -0.76357,1.70548 -1.70548,1.70548c-0.94191,0 -1.70548,-0.76357 -1.70548,-1.70548z" fill="#000000" stroke="none" stroke-width="0.5" stroke-linecap="butt"/><path d="M244.96083,197.99035c0,-0.94191 0.76357,-1.70548 1.70548,-1.70548c0.94191,0 1.70548,0.76357 1.70548,1.70548c0,0.94191 -0.76357,1.70548 -1.70548,1.70548c-0.94191,0 -1.70548,-0.76357 -1.70548,-1.70548z" fill="#000000" stroke="none" stroke-width="0.5" stroke-linecap="butt"/><path d="M249.23665,206.33507c1.20596,1.20596 0,2.41191 0,2.41191l-0.27019,0.01556c-0.36473,0.9044 -0.38745,2.04128 -1.0942,2.71321c-2.19598,2.08782 -7.35591,1.18172 -10.07445,1.18172c-0.91184,0 -4.59107,0.07175 -5.09036,-0.32192c-1.74663,-1.37715 -1.37729,-4.36396 -1.39046,-6.1589c0,0 0,-1.70548 1.70548,-1.70548c1.70548,0 1.70548,1.70548 1.70548,1.70548c-0.00734,0.81853 -0.01573,1.63704 -0.02202,2.45558c-0.0024,0.31206 -0.27311,0.7781 -0.00405,0.93621c0.31544,0.18537 0.68545,-0.28408 1.04936,-0.32192c0.67853,-0.07056 1.36438,0 2.04658,0c2.14963,0 4.40066,0.15793 6.54873,0.02202c0.37673,-0.02384 0.86549,0.07962 1.11381,-0.20469c0.30833,-0.35303 0.18013,-0.91996 0.27019,-1.37994l1.0942,-1.34883c0,0 1.20596,-1.20596 2.41191,0z" fill="#000000" stroke="none" stroke-width="0.5" stroke-linecap="butt"/><path d="M210.95076,173.89188c1.49915,-0.05048 1.54963,1.44867 1.54963,1.44867l0.07047,2.09297c0.10477,3.11161 0.43045,5.73287 0.91914,8.77423c0.63082,3.9259 -0.78978,8.09929 0.48357,11.92174c1.16988,10.29688 1.4427,20.35565 1.81257,30.71182c0.06371,1.78394 -0.62504,3.70032 0.04456,5.35505c0.32596,0.80552 2.43592,1.06546 2.95914,1.41868c0.70535,0.47618 1.36676,1.38013 2.2114,1.27598c0,0 1.5,0 1.5,1.5c0,1.5 -1.5,1.5 -1.5,1.5c-0.69134,-0.03806 -1.44382,0.1726 -2.07403,-0.11418c-0.71355,-0.32471 -1.05994,-1.17851 -1.71457,-1.60984c-1.33465,-0.87939 -3.32145,-1.15405 -4.04086,-2.58132c-1.05061,-2.08436 -0.40597,-7.25986 -0.49081,-9.63539c-0.32792,-9.18176 -0.64972,-18.04877 -1.63983,-27.18764c-1.2672,-3.97775 0.15596,-8.15385 -0.52867,-12.18836c-0.52726,-3.10711 -0.83285,-5.86021 -0.93991,-9.03982l-0.07047,-2.09297c0,0 -0.05048,-1.49915 1.44867,-1.54963z" fill="#000000" stroke="none" stroke-width="0.5" stroke-linecap="butt"/><path d="M265.94058,172.33037c1.06066,-1.06066 2.12132,0 2.12132,0l-0.08632,0.13764c1.36478,0.46626 3.00523,0.82983 3.84817,2.21524c0.76929,1.26436 0.17749,5.91272 0.17749,7.20779c0,5.36003 0.37723,10.83119 -0.50511,16.12372c-0.04244,5.24625 -2.13065,10.57359 -4.09639,15.41868c-0.83954,2.06926 -1.42919,4.95245 -2.62996,6.75811c-0.48992,0.73671 -1.42811,1.06725 -2.00904,1.73454c-1.30962,1.50431 -2.18921,3.35254 -3.51736,4.84051c-1.08805,1.21898 -2.55118,2.05247 -3.70565,3.20874c-2.13659,2.1399 -2.67924,4.23088 -6.03648,4.4157c0,0 -1.5,0 -1.5,-1.5c0,-1.5 1.5,-1.5 1.5,-1.5c2.09463,0.25829 2.68886,-2.31137 3.96352,-3.5843c1.0991,-1.09761 2.50701,-1.87119 3.53699,-3.03391c1.32772,-1.49881 2.21153,-3.3538 3.53308,-4.85805c0.47372,-0.53921 1.29874,-0.72772 1.69787,-1.32426c0.34281,-0.51235 0.15654,-1.23859 0.39676,-1.80632c1.22647,-2.89861 3.02041,-5.77722 3.94227,-8.84763c0.48573,-1.61781 0.54768,-3.82948 0.97752,-5.40657c0.42582,-1.56231 0.97195,-3.14346 0.95709,-4.76269c0.86851,-5.21256 0.49489,-10.59695 0.49489,-15.87628c0,-0.28276 0.45487,-5.30711 0.17749,-5.79221c-0.37899,-0.66278 -1.42524,-0.55029 -2.15183,-0.78476l-1.08632,-0.86236c0,0 -1.06066,-1.06066 0,-2.12132z" fill="#000000" stroke="none" stroke-width="0.5" stroke-linecap="butt"/><g stroke="none" stroke-width="0.63025" stroke-linecap="butt"><g><path d="M237.37088,181.64795c-0.44803,0 -0.69947,-0.01086 -0.71173,-0.01151c-30.5896,-2.91455 -30.02091,-22.28731 -29.98155,-23.11077c0.13077,-2.74377 1.4755,-5.54572 2.46641,-7.26255c1.47292,2.03129 4.27423,3.60853 8.34305,4.6944c3.67628,0.98145 9.23287,2.46512 18.75868,2.54912l0.62085,0.0028c0.27176,0 25.33188,-0.09227 29.71591,-7.56013c1.4227,2.31187 2.04893,6.96562 2.11195,9.91072c-4.47136,19.78347 -26.86847,20.78793 -31.32359,20.78793c0.00065,0 0,0 0,0z" fill="#65cbeb"/><path d="M266.37776,152.85584c-6.35639,6.45673 -26.85352,6.67095 -29.5105,6.67095c-0.21487,0 -0.42426,-0.0014 -0.62967,-0.0028c-9.65455,-0.08539 -15.28566,-1.58875 -19.01217,-2.58374c-3.51163,-0.938 -6.15033,-2.24885 -7.87932,-3.91148c-0.78088,1.56294 -1.55896,3.58143 -1.65252,5.54497c-0.04743,0.99295 -0.06442,6.21335 4.25519,11.46086c4.86658,5.91309 13.21027,9.4742 24.80051,10.58717c0.08819,0.00344 0.30166,0.00882 0.6216,0.00882c4.30735,0 25.93649,-0.96048 30.30418,-19.87295c-0.06506,-2.38586 -0.4961,-5.69349 -1.2973,-7.9018M266.37776,152.85584l-56.90497,-3.86814v0c-0.10238,0.36737 -0.07184,0.75646 0.15992,1.1604c1.33871,2.34177 4.50878,3.86416 8.11667,4.82722c3.60789,0.96316 9.10822,2.43125 18.5052,2.5147c0.19992,0.00204 0.40329,0.00269 0.61203,0.00269c9.61379,0 28.5311,-1.90525 29.32477,-8.4664c3.36796,2.29778 3.52185,11.93599 3.52185,11.93599c-4.586,20.69039 -27.83905,21.70173 -32.34235,21.70173c-0.48803,0 -0.75646,-0.01226 -0.75646,-0.01226c-28.46743,-2.71118 -31.17862,-19.4303 -30.95288,-24.17492c0.22573,-4.74452 3.72791,-9.48914 3.72791,-9.48914h0.08335c0,0.00065 0,0 0,0z" fill="#000000"/></g><g><path d="M236.15553,158.50663c-9.50743,-0.08872 -15.05379,-1.66123 -18.72405,-2.70161c-3.97397,-1.12652 -6.64041,-2.77356 -7.71198,-4.76355c-0.10034,-0.18637 -0.12335,-0.34296 -0.07517,-0.52395c0.23176,-0.88584 1.94321,-1.93719 3.43571,-2.5404l0.16949,-0.06646c7.18932,-2.54503 15.28361,-3.84373 24.01425,-3.84373c13.07057,0 23.6286,2.91928 25.79626,3.92514c2.14109,0.99435 2.66365,2.04968 2.7755,2.36145c-0.95703,5.62434 -17.49182,8.15657 -29.05979,8.15657l-0.62021,-0.00344z" fill="#660000"/><path d="M237.26377,145.08289c-8.57889,0 -16.52736,1.26891 -23.62795,3.7706l-0.11593,0.04269l-0.01764,0.00753l-0.03312,0.0142l-0.03872,0.0142c-1.47959,0.60257 -2.48136,1.35161 -2.74839,1.74673c0.98747,1.69177 3.41194,3.12329 7.02735,4.14808c3.61735,1.02554 9.08446,2.57568 18.45573,2.66311c0.19853,0.00204 0.40189,0.00269 0.60999,0.00269c4.71408,0 11.91491,-0.49416 17.98931,-1.88094c5.68402,-1.2973 9.3502,-3.19373 9.99482,-5.13759c-0.21143,-0.31457 -0.76593,-0.928 -2.12765,-1.56036c-1.81986,-0.84454 -12.35143,-3.83093 -25.3678,-3.83093M237.26377,145.08289v-2.03333v0c13.4373,0 24.17901,3.07113 26.22385,4.01935c3.2047,1.48841 3.38086,3.2317 3.38086,3.2317c-0.81465,7.14942 -20.22741,9.22545 -30.09404,9.22545c-0.21423,0 -0.42437,-0.00065 -0.62902,-0.00269c-9.64433,-0.09012 -15.2891,-1.69038 -18.99184,-2.74033c-3.70285,-1.04984 -6.95627,-2.70774 -8.33014,-5.25965c-0.23724,-0.44061 -0.26843,-0.86422 -0.16336,-1.26482c0.43856,-1.67618 3.31849,-2.93348 4.03838,-3.22428c0.00333,-0.00129 0.00742,-0.00269 0.01011,-0.00398c0.04818,-0.01904 0.0841,-0.03398 0.11045,-0.04345c0.00409,-0.00204 0.00753,-0.00269 0.01086,-0.00409c0.01968,-0.00807 0.03388,-0.01355 0.03388,-0.01355c8.27185,-2.93004 16.77009,-3.91966 24.40001,-3.91966z" fill="#000000"/></g></g><g stroke="none" stroke-width="0.63025" stroke-linecap="butt"><path d="M238.10692,182.00715c-0.91369,0 -1.44163,-0.03043 -1.45313,-0.03108c-30.9346,-2.94714 -30.3544,-22.62962 -30.31439,-23.46664c0.14637,-3.07651 1.77372,-6.20938 2.7884,-7.88276c1.32236,2.17701 4.16303,3.85997 8.44672,5.00348c3.66004,0.97736 9.19157,2.45426 18.67394,2.53761l0.61816,0.00269c0.2765,0 26.45367,-0.0955 29.70032,-7.93288c2.42652,2.56955 2.73958,8.12613 2.47254,10.65363c-2.0727,19.59161 -24.19794,21.11594 -30.93256,21.11594c0.00075,0 0.00075,0 0,0z" fill="#cc7700"/><path d="M266.66114,151.46433c-4.97982,7.2931 -28.69446,7.38462 -29.79528,7.38462c-0.21283,0 -0.42017,-0.00129 -0.62354,-0.00269c-9.5684,-0.08474 -15.1494,-1.57455 -18.84268,-2.56073c-3.87094,-1.03361 -6.62482,-2.51524 -8.21012,-4.41382c-0.93606,1.6993 -2.05646,4.21325 -2.17368,6.6702c-0.04958,1.03705 -0.06851,6.48447 4.40898,11.92383c4.98993,6.06215 13.49903,9.70735 25.29058,10.83452c0.10572,0.00538 0.60321,0.0285 1.39151,0.0285c6.58954,0 28.24514,-1.47895 30.25815,-20.5081c0.28198,-2.6658 -0.13142,-6.92573 -1.70393,-9.35633M266.66114,151.46433l-57.18835,-2.47663v0c-0.10238,0.36737 -0.07184,0.75646 0.15992,1.1604c1.33871,2.34177 4.50878,3.86416 8.11667,4.82722c3.60789,0.96316 9.10822,2.43125 18.5052,2.5147c0.19992,0.00204 0.40329,0.00269 0.61203,0.00269c9.61379,0 28.5311,-1.90525 29.32477,-8.4664c3.36796,2.29778 3.84857,8.84184 3.52185,11.93599c-2.154,20.36442 -25.43695,21.72131 -31.60632,21.72131c-0.94822,0 -1.4925,-0.03183 -1.4925,-0.03183c-28.46743,-2.71118 -31.17862,-19.4303 -30.95288,-24.17492c0.22573,-4.74452 3.72791,-9.48914 3.72791,-9.48914h0.08335c0,0.00065 0,0 0,0z" fill="#000000"/></g></g></g></svg>